<svg width="292" height="126" viewBox="0 0 292 126" fill="none" xmlns="http://www.w3.org/2000/svg">
<path d="M39.4687 6.92578L5.71405 111.938L9.28593 113.062L43.0312 8.07422L39.4687 6.92578ZM80.5312 6.92578L76.9687 8.07422L110.719 113.062L114.281 111.938L80.5312 6.92578ZM58.125 7.5L57.9375 12.1875H62.0625L61.875 7.5H58.125ZM57.7969 15.9375L57.6094 20.625H62.3906L62.2031 15.9375H57.7969ZM57.4453 24.375L57.1406 31.875H62.8594L62.5547 24.375H57.4453ZM57 35.625L56.5312 46.875H63.4687L63 35.625H57ZM56.3437 51.5625L55.7812 65.625H64.2187L63.6562 51.5625H56.3437ZM55.5703 71.25L54.8906 88.125H65.1094L64.4297 71.25H55.5703ZM54.6328 94.6875L53.9062 112.5H66.0937L65.3672 94.6875H54.6328Z" fill="#008000"/>
<path d="M133.104 49.768C133.104 51.0693 132.805 52.264 132.208 53.352C131.611 54.4187 130.693 55.2827 129.456 55.944C128.219 56.6053 126.683 56.936 124.848 56.936H121.456V65H115.984V42.536H124.848C126.64 42.536 128.155 42.8453 129.392 43.464C130.629 44.0827 131.557 44.936 132.176 46.024C132.795 47.112 133.104 48.36 133.104 49.768ZM124.432 52.584C125.477 52.584 126.256 52.3387 126.768 51.848C127.28 51.3573 127.536 50.664 127.536 49.768C127.536 48.872 127.28 48.1787 126.768 47.688C126.256 47.1973 125.477 46.952 124.432 46.952H121.456V52.584H124.432ZM153.585 47.144V65H148.113V62.568C147.558 63.3573 146.801 63.9973 145.841 64.488C144.902 64.9573 143.857 65.192 142.705 65.192C141.339 65.192 140.134 64.8933 139.089 64.296C138.043 63.6773 137.233 62.792 136.657 61.64C136.081 60.488 135.793 59.1333 135.793 57.576V47.144H141.233V56.84C141.233 58.0347 141.542 58.9627 142.161 59.624C142.779 60.2853 143.611 60.616 144.657 60.616C145.723 60.616 146.566 60.2853 147.185 59.624C147.803 58.9627 148.113 58.0347 148.113 56.84V47.144H153.585ZM162.987 50.12C163.627 49.1387 164.427 48.3707 165.387 47.816C166.347 47.24 167.414 46.952 168.587 46.952V52.744H167.083C165.718 52.744 164.694 53.0427 164.011 53.64C163.329 54.216 162.987 55.24 162.987 56.712V65H157.515V47.144H162.987V50.12ZM176.675 49.672C177.208 48.84 177.944 48.168 178.883 47.656C179.821 47.144 180.92 46.888 182.179 46.888C183.651 46.888 184.984 47.2613 186.179 48.008C187.373 48.7547 188.312 49.8213 188.995 51.208C189.699 52.5947 190.051 54.2053 190.051 56.04C190.051 57.8747 189.699 59.496 188.995 60.904C188.312 62.2907 187.373 63.368 186.179 64.136C184.984 64.8827 183.651 65.256 182.179 65.256C180.941 65.256 179.843 65 178.883 64.488C177.944 63.976 177.208 63.3147 176.675 62.504V73.512H171.203V47.144H176.675V49.672ZM184.483 56.04C184.483 54.6747 184.099 53.608 183.331 52.84C182.584 52.0507 181.656 51.656 180.547 51.656C179.459 51.656 178.531 52.0507 177.763 52.84C177.016 53.6293 176.643 54.7067 176.643 56.072C176.643 57.4373 177.016 58.5147 177.763 59.304C178.531 60.0933 179.459 60.488 180.547 60.488C181.635 60.488 182.563 60.0933 183.331 59.304C184.099 58.4933 184.483 57.4053 184.483 56.04ZM201.05 65.256C199.3 65.256 197.722 64.8827 196.314 64.136C194.927 63.3893 193.828 62.3227 193.018 60.936C192.228 59.5493 191.834 57.928 191.834 56.072C191.834 54.2373 192.239 52.6267 193.049 51.24C193.86 49.832 194.97 48.7547 196.378 48.008C197.786 47.2613 199.364 46.888 201.114 46.888C202.863 46.888 204.442 47.2613 205.85 48.008C207.258 48.7547 208.367 49.832 209.178 51.24C209.988 52.6267 210.394 54.2373 210.394 56.072C210.394 57.9067 209.978 59.528 209.146 60.936C208.335 62.3227 207.215 63.3893 205.786 64.136C204.378 64.8827 202.799 65.256 201.05 65.256ZM201.05 60.52C202.095 60.52 202.98 60.136 203.706 59.368C204.452 58.6 204.826 57.5013 204.826 56.072C204.826 54.6427 204.463 53.544 203.738 52.776C203.034 52.008 202.159 51.624 201.114 51.624C200.047 51.624 199.162 52.008 198.458 52.776C197.754 53.5227 197.402 54.6213 197.402 56.072C197.402 57.5013 197.743 58.6 198.426 59.368C199.13 60.136 200.004 60.52 201.05 60.52ZM220.561 65.256C219.003 65.256 217.617 64.9893 216.401 64.456C215.185 63.9227 214.225 63.1973 213.521 62.28C212.817 61.3413 212.422 60.296 212.337 59.144H217.745C217.809 59.7627 218.097 60.264 218.609 60.648C219.121 61.032 219.75 61.224 220.497 61.224C221.179 61.224 221.702 61.096 222.065 60.84C222.449 60.5627 222.641 60.2107 222.641 59.784C222.641 59.272 222.374 58.8987 221.841 58.664C221.307 58.408 220.443 58.1307 219.249 57.832C217.969 57.5333 216.902 57.224 216.049 56.904C215.195 56.5627 214.459 56.04 213.841 55.336C213.222 54.6107 212.913 53.64 212.913 52.424C212.913 51.4 213.19 50.472 213.745 49.64C214.321 48.7867 215.153 48.1147 216.241 47.624C217.35 47.1333 218.662 46.888 220.177 46.888C222.417 46.888 224.177 47.4427 225.457 48.552C226.758 49.6613 227.505 51.1333 227.697 52.968H222.641C222.555 52.3493 222.278 51.8587 221.809 51.496C221.361 51.1333 220.763 50.952 220.017 50.952C219.377 50.952 218.886 51.08 218.545 51.336C218.203 51.5707 218.033 51.9013 218.033 52.328C218.033 52.84 218.299 53.224 218.833 53.48C219.387 53.736 220.241 53.992 221.393 54.248C222.715 54.5893 223.793 54.9307 224.625 55.272C225.457 55.592 226.182 56.1253 226.801 56.872C227.441 57.5973 227.771 58.5787 227.793 59.816C227.793 60.8613 227.494 61.8 226.897 62.632C226.321 63.4427 225.478 64.0827 224.369 64.552C223.281 65.0213 222.011 65.256 220.561 65.256ZM247.972 55.784C247.972 56.296 247.94 56.8293 247.876 57.384H235.492C235.578 58.4933 235.93 59.3467 236.548 59.944C237.188 60.52 237.967 60.808 238.884 60.808C240.25 60.808 241.199 60.232 241.732 59.08H247.556C247.258 60.2533 246.714 61.3093 245.924 62.248C245.156 63.1867 244.186 63.9227 243.012 64.456C241.839 64.9893 240.527 65.256 239.076 65.256C237.327 65.256 235.77 64.8827 234.404 64.136C233.039 63.3893 231.972 62.3227 231.204 60.936C230.436 59.5493 230.052 57.928 230.052 56.072C230.052 54.216 230.426 52.5947 231.172 51.208C231.94 49.8213 233.007 48.7547 234.372 48.008C235.738 47.2613 237.306 46.888 239.076 46.888C240.804 46.888 242.34 47.2507 243.684 47.976C245.028 48.7013 246.074 49.736 246.82 51.08C247.588 52.424 247.972 53.992 247.972 55.784ZM242.372 54.344C242.372 53.4053 242.052 52.6587 241.412 52.104C240.772 51.5493 239.972 51.272 239.012 51.272C238.095 51.272 237.316 51.5387 236.676 52.072C236.058 52.6053 235.674 53.3627 235.524 54.344H242.372ZM259.819 51.688H256.875V65H251.403V51.688H249.419V47.144H251.403V46.632C251.403 44.4347 252.032 42.7707 253.291 41.64C254.55 40.488 256.395 39.912 258.827 39.912C259.232 39.912 259.531 39.9227 259.723 39.944V44.584C258.678 44.52 257.942 44.6693 257.515 45.032C257.088 45.3947 256.875 46.0453 256.875 46.984V47.144H259.819V51.688ZM280.022 47.144V65H274.55V62.568C273.996 63.3573 273.238 63.9973 272.278 64.488C271.34 64.9573 270.294 65.192 269.142 65.192C267.777 65.192 266.572 64.8933 265.526 64.296C264.481 63.6773 263.67 62.792 263.094 61.64C262.518 60.488 262.23 59.1333 262.23 57.576V47.144H267.67V56.84C267.67 58.0347 267.98 58.9627 268.598 59.624C269.217 60.2853 270.049 60.616 271.094 60.616C272.161 60.616 273.004 60.2853 273.622 59.624C274.241 58.9627 274.55 58.0347 274.55 56.84V47.144H280.022ZM289.425 41.32V65H283.953V41.32H289.425ZM133.104 97.768C133.104 99.0693 132.805 100.264 132.208 101.352C131.611 102.419 130.693 103.283 129.456 103.944C128.219 104.605 126.683 104.936 124.848 104.936H121.456V113H115.984V90.536H124.848C126.64 90.536 128.155 90.8453 129.392 91.464C130.629 92.0827 131.557 92.936 132.176 94.024C132.795 95.112 133.104 96.36 133.104 97.768ZM124.432 100.584C125.477 100.584 126.256 100.339 126.768 99.848C127.28 99.3573 127.536 98.664 127.536 97.768C127.536 96.872 127.28 96.1787 126.768 95.688C126.256 95.1973 125.477 94.952 124.432 94.952H121.456V100.584H124.432ZM134.865 104.04C134.865 102.205 135.206 100.595 135.889 99.208C136.593 97.8213 137.542 96.7547 138.737 96.008C139.931 95.2613 141.265 94.888 142.737 94.888C143.995 94.888 145.094 95.144 146.033 95.656C146.993 96.168 147.729 96.84 148.241 97.672V95.144H153.713V113H148.241V110.472C147.707 111.304 146.961 111.976 146.001 112.488C145.062 113 143.963 113.256 142.705 113.256C141.254 113.256 139.931 112.883 138.737 112.136C137.542 111.368 136.593 110.291 135.889 108.904C135.206 107.496 134.865 105.875 134.865 104.04ZM148.241 104.072C148.241 102.707 147.857 101.629 147.089 100.84C146.342 100.051 145.425 99.656 144.337 99.656C143.249 99.656 142.321 100.051 141.553 100.84C140.806 101.608 140.433 102.675 140.433 104.04C140.433 105.405 140.806 106.493 141.553 107.304C142.321 108.093 143.249 108.488 144.337 108.488C145.425 108.488 146.342 108.093 147.089 107.304C147.857 106.515 148.241 105.437 148.241 104.072ZM167.624 108.36V113H164.84C162.856 113 161.309 112.52 160.2 111.56C159.09 110.579 158.536 108.989 158.536 106.792V99.688H156.36V95.144H158.536V90.792H164.008V95.144H167.592V99.688H164.008V106.856C164.008 107.389 164.136 107.773 164.392 108.008C164.648 108.243 165.074 108.36 165.672 108.36H167.624ZM181.648 94.952C183.696 94.952 185.338 95.6347 186.576 97C187.813 98.344 188.432 100.2 188.432 102.568V113H182.992V103.304C182.992 102.109 182.682 101.181 182.064 100.52C181.445 99.8587 180.613 99.528 179.568 99.528C178.522 99.528 177.69 99.8587 177.072 100.52C176.453 101.181 176.144 102.109 176.144 103.304V113H170.672V89.32H176.144V97.544C176.698 96.7547 177.456 96.1253 178.416 95.656C179.376 95.1867 180.453 94.952 181.648 94.952Z" fill="black"/>
</svg>
