<svg width="212" height="79" viewBox="0 0 212 79" fill="none" xmlns="http://www.w3.org/2000/svg">
<g filter="url(#filter0_d_101_5)">
<path d="M5.63636 64V17.4545H21.3636C25.0152 17.4545 28 18.1136 30.3182 19.4318C32.6515 20.7348 34.3788 22.5 35.5 24.7273C36.6212 26.9545 37.1818 29.4394 37.1818 32.1818C37.1818 34.9242 36.6212 37.4167 35.5 39.6591C34.3939 41.9015 32.6818 43.6894 30.3636 45.0227C28.0455 46.3409 25.0758 47 21.4545 47H10.1818V42H21.2727C23.7727 42 25.7803 41.5682 27.2955 40.7045C28.8106 39.8409 29.9091 38.6742 30.5909 37.2045C31.2879 35.7197 31.6364 34.0455 31.6364 32.1818C31.6364 30.3182 31.2879 28.6515 30.5909 27.1818C29.9091 25.7121 28.803 24.5606 27.2727 23.7273C25.7424 22.8788 23.7121 22.4545 21.1818 22.4545H11.2727V64H5.63636Z" fill="black"/>
<path d="M55.4 36.84H57.16C57.56 36.84 57.76 37.04 57.76 37.44V39.4C57.76 39.8 57.56 40 57.16 40H52.68C52.36 40 52.16 39.8 52.08 39.4L51.72 37.16C50.0133 39.3733 47.7733 40.48 45 40.48C40.68 40.48 38.52 38.2133 38.52 33.68V23.48H36.4C36 23.48 35.8 23.28 35.8 22.88V20.8C35.8 20.4 36 20.2 36.4 20.2H42.4C42.8 20.2 43 20.4 43 20.8V32.48C43 34.08 43.2 35.2267 43.6 35.92C44.0267 36.5867 44.9067 36.92 46.24 36.92C47.6 36.92 48.72 36.52 49.6 35.72C50.48 34.92 50.92 34.0133 50.92 33V23.48H48.4C48 23.48 47.8 23.28 47.8 22.88V20.8C47.8 20.4 48 20.2 48.4 20.2H54.8C55.2 20.2 55.4 20.4 55.4 20.8V36.84ZM66.9453 23.64C67.3986 22.5733 68.132 21.6667 69.1453 20.92C70.1586 20.1467 71.2653 19.76 72.4653 19.76C73.6653 19.76 74.5853 19.8667 75.2253 20.08C75.5453 20.1867 75.7053 20.4267 75.7053 20.8V26.2C75.7053 26.6 75.5053 26.8 75.1053 26.8H72.5053C72.1053 26.8 71.9186 26.6 71.9453 26.2L72.1053 23.88C71.972 23.8533 71.7453 23.84 71.4253 23.84C70.1986 23.84 69.1853 24.3467 68.3853 25.36C67.5853 26.3467 67.1853 27.68 67.1853 29.36V36.84H71.5853C71.9853 36.84 72.1853 37.04 72.1853 37.44V39.4C72.1853 39.8 71.9853 40 71.5853 40H60.5853C60.1853 40 59.9853 39.8 59.9853 39.4V37.44C59.9853 37.04 60.1853 36.84 60.5853 36.84H62.7053V23.48H60.5453C60.1453 23.48 59.9453 23.28 59.9453 22.88V20.8C59.9453 20.4 60.1453 20.2 60.5453 20.2H65.8253C66.1986 20.2 66.4253 20.4 66.5053 20.8L66.9453 23.64ZM80.5522 46.04V23.48H78.3922C77.9922 23.48 77.7922 23.28 77.7922 22.88V20.8C77.7922 20.4 77.9922 20.2 78.3922 20.2H83.8322C84.1522 20.2 84.3522 20.4 84.4322 20.8L84.8322 23.2C86.1922 20.9067 88.2855 19.76 91.1122 19.76C93.5655 19.76 95.4855 20.5733 96.8722 22.2C98.2589 23.8 98.9522 26.1733 98.9522 29.32C98.9522 33.1333 98.1389 35.9467 96.5122 37.76C94.8855 39.5733 92.7922 40.48 90.2322 40.48C88.1255 40.48 86.3922 39.92 85.0322 38.8V46H89.2722C89.6722 46 89.8722 46.2 89.8722 46.6V48.6C89.8722 49 89.6722 49.2 89.2722 49.2H78.4322C78.0322 49.2 77.8322 49 77.8322 48.6V46.64C77.8322 46.24 78.0322 46.04 78.4322 46.04H80.5522ZM85.0322 27.84V35.48C85.4589 35.9067 86.1122 36.2933 86.9922 36.64C87.8722 36.9867 88.7389 37.16 89.5922 37.16C91.1389 37.16 92.3255 36.64 93.1522 35.6C94.0055 34.5333 94.4322 32.7467 94.4322 30.24C94.4322 26.8267 93.6855 24.7333 92.1922 23.96C91.5522 23.6133 90.6722 23.44 89.5522 23.44C88.4322 23.44 87.3922 23.84 86.4322 24.64C85.4989 25.4133 85.0322 26.48 85.0322 27.84ZM101.752 30.4C101.752 28.4 102.058 26.6667 102.672 25.2C103.285 23.7333 104.085 22.6267 105.072 21.88C106.965 20.4667 109.018 19.76 111.232 19.76C112.858 19.76 114.232 20.0133 115.352 20.52C116.472 21.0267 117.338 21.6133 117.952 22.28C118.592 22.9467 119.125 23.9067 119.552 25.16C120.005 26.4133 120.232 27.88 120.232 29.56C120.232 33.1333 119.325 35.8533 117.512 37.72C115.725 39.56 113.432 40.48 110.632 40.48C107.832 40.48 105.645 39.64 104.072 37.96C102.525 36.2533 101.752 33.7333 101.752 30.4ZM110.952 37.2C112.552 37.2 113.712 36.6133 114.432 35.44C115.178 34.24 115.552 32.4667 115.552 30.12C115.552 27.7733 115.178 26.0133 114.432 24.84C113.712 23.64 112.525 23.04 110.872 23.04C107.805 23.04 106.272 25.2 106.272 29.52C106.272 34.64 107.832 37.2 110.952 37.2ZM123.178 25.92C123.178 24.16 123.858 22.6933 125.218 21.52C126.578 20.3467 128.298 19.76 130.378 19.76C132.458 19.76 134.258 20 135.778 20.48C136.151 20.5867 136.338 20.8267 136.338 21.2V25.44C136.338 25.84 136.138 26.04 135.738 26.04H133.418C132.991 26.04 132.818 25.84 132.898 25.44L133.098 23.4C132.298 22.9733 131.418 22.76 130.458 22.76C128.324 22.76 127.258 23.5067 127.258 25C127.258 25.7733 127.604 26.3867 128.298 26.84C128.991 27.2933 129.831 27.6667 130.818 27.96C131.804 28.2267 132.791 28.5467 133.778 28.92C134.791 29.2667 135.644 29.88 136.338 30.76C137.031 31.6133 137.378 32.7067 137.378 34.04C137.378 36.0667 136.671 37.6533 135.258 38.8C133.844 39.92 131.858 40.48 129.298 40.48C127.511 40.48 125.631 40.2133 123.658 39.68C123.311 39.5733 123.138 39.32 123.138 38.92V34.68C123.138 34.28 123.338 34.08 123.738 34.08H126.058C126.458 34.08 126.644 34.28 126.618 34.68L126.498 36.76C127.218 37.2933 128.244 37.56 129.578 37.56C131.951 37.56 133.138 36.72 133.138 35.04C133.138 34.1867 132.791 33.52 132.098 33.04C131.431 32.5333 130.604 32.1467 129.618 31.88C128.658 31.6133 127.684 31.32 126.698 31C125.711 30.6533 124.871 30.0667 124.178 29.24C123.511 28.3867 123.178 27.28 123.178 25.92ZM149.194 40.48C146.02 40.48 143.687 39.56 142.194 37.72C140.727 35.8533 139.994 33.4 139.994 30.36C139.994 27.2933 140.78 24.76 142.354 22.76C143.927 20.76 146.194 19.76 149.154 19.76C150.62 19.76 151.874 20.04 152.914 20.6C153.98 21.1333 154.794 21.8667 155.354 22.8C156.42 24.6133 156.954 26.7067 156.954 29.08C156.954 30.2 156.9 30.8133 156.794 30.92C156.687 31.0267 156.487 31.08 156.194 31.08H144.434C144.567 33 145.034 34.4933 145.834 35.56C146.66 36.6 148.074 37.12 150.074 37.12C151.54 37.12 153.047 36.7733 154.594 36.08C154.967 35.8933 155.234 36 155.394 36.4L156.154 38.24C156.287 38.56 156.167 38.8267 155.794 39.04C154.034 40 151.834 40.48 149.194 40.48ZM144.434 28.12H152.754C152.807 24.7867 151.5 23.12 148.834 23.12C147.26 23.12 146.14 23.6267 145.474 24.64C144.834 25.6267 144.487 26.7867 144.434 28.12ZM166.524 23.44V36.84H170.764C171.164 36.84 171.364 37.04 171.364 37.44V39.4C171.364 39.8 171.164 40 170.764 40H159.564C159.164 40 158.964 39.8 158.964 39.4V37.44C158.964 37.04 159.164 36.84 159.564 36.84H162.044V23.44H159.564C159.164 23.44 158.964 23.24 158.964 22.84V20.8C158.964 20.4 159.164 20.2 159.564 20.2H162.044V16.32C162.044 13.12 163.044 11.08 165.044 10.2C165.871 9.82666 167.004 9.64 168.444 9.64C169.884 9.64 171.351 9.97333 172.844 10.64C173.084 10.7467 173.204 10.88 173.204 11.04C173.204 11.2 173.191 11.32 173.164 11.4L172.564 13.4C172.431 13.72 172.204 13.8133 171.884 13.68C170.817 13.2 169.804 12.96 168.844 12.96C167.884 12.96 167.257 13.28 166.964 13.92C166.671 14.5333 166.524 15.6533 166.524 17.28V20.2H171.364C171.764 20.2 171.964 20.4 171.964 20.8V22.84C171.964 23.24 171.764 23.44 171.364 23.44H166.524ZM192.9 36.84H194.66C195.06 36.84 195.26 37.04 195.26 37.44V39.4C195.26 39.8 195.06 40 194.66 40H190.18C189.86 40 189.66 39.8 189.58 39.4L189.22 37.16C187.513 39.3733 185.273 40.48 182.5 40.48C178.18 40.48 176.02 38.2133 176.02 33.68V23.48H173.9C173.5 23.48 173.3 23.28 173.3 22.88V20.8C173.3 20.4 173.5 20.2 173.9 20.2H179.9C180.3 20.2 180.5 20.4 180.5 20.8V32.48C180.5 34.08 180.7 35.2267 181.1 35.92C181.527 36.5867 182.407 36.92 183.74 36.92C185.1 36.92 186.22 36.52 187.1 35.72C187.98 34.92 188.42 34.0133 188.42 33V23.48H185.9C185.5 23.48 185.3 23.28 185.3 22.88V20.8C185.3 20.4 185.5 20.2 185.9 20.2H192.3C192.7 20.2 192.9 20.4 192.9 20.8V36.84ZM204.685 10.76V36.84H207.205C207.605 36.84 207.805 37.04 207.805 37.44V39.4C207.805 39.8 207.605 40 207.205 40H197.685C197.285 40 197.085 39.8 197.085 39.4V37.44C197.085 37.04 197.285 36.84 197.685 36.84H200.205V13.44H198.045C197.645 13.44 197.445 13.24 197.445 12.84V10.76C197.445 10.36 197.645 10.16 198.045 10.16H204.085C204.485 10.16 204.685 10.36 204.685 10.76Z" fill="black"/>
<path d="M24.12 56.12V54.72C24.12 52.8267 23.5867 51.64 22.52 51.16C22.0133 50.9467 21.28 50.84 20.32 50.84C18.5067 50.84 17.4133 51.6933 17.04 53.4C16.96 53.8 16.76 54 16.44 54H13.88C13.4533 54 13.2667 53.8 13.32 53.4C13.4267 51.4533 14.2133 50.0267 15.68 49.12C17.1467 48.2133 19.0133 47.76 21.28 47.76C26.0533 47.76 28.44 49.9467 28.44 54.32V64.84H30.16C30.56 64.84 30.76 65.04 30.76 65.44V67.4C30.76 67.8 30.56 68 30.16 68H25.44C25.0933 68 24.8933 67.8 24.84 67.4L24.56 65.56C23.12 67.5067 21.04 68.48 18.32 68.48C16.6133 68.48 15.2 68.04 14.08 67.16C12.96 66.2533 12.4 64.8133 12.4 62.84C12.4 60.2533 13.48 58.48 15.64 57.52C17.4267 56.6933 19.56 56.24 22.04 56.16C22.5467 56.16 23.24 56.1467 24.12 56.12ZM24.2 61.96V58.88C21.64 58.88 20.0667 59 19.48 59.24C18.8933 59.48 18.3733 59.72 17.92 59.96C17.0667 60.4133 16.64 61.24 16.64 62.44C16.64 64.28 17.6933 65.2 19.8 65.2C21.1867 65.2 22.2667 64.88 23.04 64.24C23.8133 63.5733 24.2 62.8133 24.2 61.96ZM39.1553 51.48V61.56C39.1553 62.8133 39.3153 63.72 39.6353 64.28C39.9553 64.84 40.5553 65.12 41.4353 65.12C42.3153 65.12 43.1686 64.9333 43.9953 64.56C44.2886 64.4533 44.502 64.56 44.6353 64.88L45.3553 66.72C45.382 66.8 45.3953 66.92 45.3953 67.08C45.3953 67.2133 45.262 67.36 44.9953 67.52C43.7153 68.16 42.1953 68.48 40.4353 68.48C38.062 68.48 36.502 67.8667 35.7553 66.64C35.222 65.84 34.9153 65.0667 34.8353 64.32C34.7286 63.3067 34.6753 62.24 34.6753 61.12V51.48H32.3953C31.9953 51.48 31.7953 51.28 31.7953 50.88V48.8C31.7953 48.4 31.9953 48.2 32.3953 48.2H34.6753V42.8C34.6753 42.4 34.8753 42.2 35.2753 42.2H38.5553C38.9553 42.2 39.1553 42.4 39.1553 42.8V48.2H43.1953C43.5953 48.2 43.7953 48.4 43.7953 48.8V50.88C43.7953 51.28 43.5953 51.48 43.1953 51.48H39.1553ZM46.7609 40.84V38.76C46.7609 38.36 46.9609 38.16 47.3609 38.16H53.4009C53.8009 38.16 54.0009 38.36 54.0009 38.76V51.08C55.4943 48.8667 57.5609 47.76 60.2009 47.76C64.3343 47.76 66.4009 50.0267 66.4009 54.56V64.84H68.7609C69.1609 64.84 69.3609 65.04 69.3609 65.44V67.4C69.3609 67.8 69.1609 68 68.7609 68H60.0009C59.6009 68 59.4009 67.8 59.4009 67.4V65.44C59.4009 65.04 59.6009 64.84 60.0009 64.84H61.9209V56.56C61.9209 54.88 61.7076 53.6533 61.2809 52.88C60.8543 52.1067 59.9743 51.72 58.6409 51.72C57.3076 51.72 56.2009 52.12 55.3209 52.92C54.4409 53.72 54.0009 54.6267 54.0009 55.64V64.84H56.4409C56.8409 64.84 57.0409 65.04 57.0409 65.44V67.4C57.0409 67.8 56.8409 68 56.4409 68H47.3609C46.9609 68 46.7609 67.8 46.7609 67.4V65.44C46.7609 65.04 46.9609 64.84 47.3609 64.84H49.5209V41.44H47.3609C46.9609 41.44 46.7609 41.24 46.7609 40.84Z" fill="black"/>
</g>
<defs>
<filter id="filter0_d_101_5" x="1.63637" y="9.63998" width="210.169" height="66.84" filterUnits="userSpaceOnUse" color-interpolation-filters="sRGB">
<feFlood flood-opacity="0" result="BackgroundImageFix"/>
<feColorMatrix in="SourceAlpha" type="matrix" values="0 0 0 0 0 0 0 0 0 0 0 0 0 0 0 0 0 0 127 0" result="hardAlpha"/>
<feOffset dy="4"/>
<feGaussianBlur stdDeviation="2"/>
<feComposite in2="hardAlpha" operator="out"/>
<feColorMatrix type="matrix" values="0 0 0 0 0 0 0 0 0 0 0 0 0 0 0 0 0 0 0.25 0"/>
<feBlend mode="normal" in2="BackgroundImageFix" result="effect1_dropShadow_101_5"/>
<feBlend mode="normal" in="SourceGraphic" in2="effect1_dropShadow_101_5" result="shape"/>
</filter>
</defs>
</svg>
